<svg width="434" height="95" viewBox="0 0 434 95" fill="none" xmlns="http://www.w3.org/2000/svg">
<g clip-path="url(#clip0_387_442)">
<path d="M32.3885 76.1202C32.0293 74.8847 31.8629 73.5757 31.8629 72.2C31.8629 70.8242 32.0426 69.2882 32.3686 67.7922C32.4883 67.1845 32.648 66.5968 32.8144 65.9957C31.8097 64.6601 30.9581 63.124 30.3593 61.3276C29.7338 59.5511 29.4943 57.9283 29.4943 56.3321C29.4943 55.0766 29.654 53.8678 29.9002 52.6123C30.0199 52.0045 30.1796 51.3768 30.3459 50.749C27.0459 52.0646 21.0977 53.6808 15.3625 53.6808C7.89079 53.6808 0.738402 50.9493 0.0131836 41.2857V41.0854C0.0131836 39.9701 0.798282 39.7898 1.28398 39.7898C1.48358 39.7898 1.64326 39.8298 1.64326 39.8298C2.5082 50.1813 8.73577 53.1332 15.5422 53.1332C21.0379 53.1332 26.8995 51.2098 30.672 49.7138C36.1344 31.8425 61.2908 7.45972 81.1711 7.45972H81.2909C82.9808 7.47975 84.6375 7.66007 86.2277 8.04741C93.094 9.66358 97.3654 14.0312 97.6515 21.6713C97.7114 22.259 97.7314 22.8667 97.7314 23.4678C97.7314 26.5399 97.0261 29.9392 95.7553 33.4587C93.3601 40.0502 88.9689 47.1894 83.4865 53.9012C79.0354 59.3374 73.8591 64.5131 68.4432 68.9209C79.0354 66.717 90.5391 60.5529 108.729 45.0857C108.769 45.0657 108.809 45.0457 108.849 45.0457C109.029 45.0457 109.275 45.246 109.375 45.3662L109.395 45.4263C109.395 45.4864 109.295 45.5265 109.195 45.6467C96.8465 56.9265 82.0427 67.4182 65.3627 71.3251C58.4565 76.4608 51.3041 80.2808 44.7971 81.7567C43.4864 82.0573 42.016 82.2643 40.5655 82.2643C36.7798 82.2643 33.0539 80.8685 32.3885 76.1202ZM38.33 53.1532C40.1198 50.1813 41.8763 47.2896 43.7658 44.5581C41.9361 45.4664 32.5881 49.3933 32.1823 50.562C31.4571 52.7258 31.0712 54.7293 31.0712 56.6059C31.0712 57.8815 31.2508 59.0903 31.6167 60.2657C32.0426 61.5613 32.7012 62.6899 33.5329 63.685C34.9434 59.7448 36.9394 55.9848 38.33 53.1532ZM66.547 69.2682C72.2489 64.7402 77.7047 59.304 82.3754 53.5406C87.9975 46.6685 92.4885 39.329 94.9436 32.5571C96.2543 28.9574 96.9795 25.498 96.9795 22.3859L96.9596 21.658C96.3342 15.3068 91.6036 10.4583 85.5823 9.6903C84.8371 9.59012 84.072 9.55005 83.3069 9.53002H83.227C65.8817 9.53002 39.7804 31.5887 32.8343 48.8123C35.4557 47.7437 43.7326 44.5448 45.2029 42.568C47.658 39.2956 50.3992 36.3237 53.5995 33.7325C53.9388 33.5121 57.6913 30.7606 60.712 29.6253C61.557 29.3047 62.2023 29.1578 62.7279 29.1578C63.5729 29.1578 64.1385 29.5652 64.8238 30.4133C64.9236 30.5335 64.9635 30.6738 64.9635 30.8407C64.9635 31.6488 63.7725 32.9444 61.9029 34.22C59.348 35.9163 55.3959 38.3673 50.5257 41.0319C47.0792 42.9353 41.8829 51.4836 39.8935 54.9631C37.9375 58.3624 36.2874 61.9152 35.183 65.2745C39.1683 68.4667 45.3161 69.5219 49.827 69.7624C52.3021 69.9026 54.6641 70.0028 56.9794 70.0028C60.2196 70.0028 63.3866 69.8024 66.567 69.2748L66.547 69.2682ZM44.5908 81.0755C50.4924 79.6998 56.9595 76.3472 63.2602 71.7725C59.4944 72.5205 55.6288 72.9279 51.6767 72.9279C50.5456 72.9279 49.4412 72.8878 48.3101 72.8277C43.014 72.5272 37.9774 71.1114 34.4112 67.7522C33.8257 69.8959 33.5063 71.9195 33.5063 73.6358L33.5263 74.3237C33.8855 79.9469 36.7864 81.6232 40.4325 81.6232C41.7432 81.6232 43.1537 81.4028 44.5842 81.0755H44.5908ZM62.8211 31.8625C63.6461 31.0745 64.052 30.6471 64.052 30.5469C64.052 30.5268 64.032 30.5068 64.0121 30.5068C63.8524 30.5068 63.3667 30.7472 62.5017 31.2348C60.346 32.4102 55.7552 34.7943 51.2243 39.5026C51.0446 39.7029 50.8184 39.93 50.5988 40.1905C57.2655 36.5107 61.191 33.4787 62.8278 31.8625H62.8211Z" fill="#1D1D1B"/>
<path d="M105.988 51.1697C105.988 47.9574 107.758 43.73 109.435 41.8066C109.96 41.1789 110.479 40.9585 110.945 40.9585C112.076 40.9585 112.881 42.3943 112.881 42.6748V42.6949C112.136 44.2109 108.004 49.814 107.405 52.9262C107.585 53.4738 107.951 53.6942 108.39 53.6942C110.286 53.6942 113.992 49.794 114.857 48.9058C115.157 47.6302 116.447 43.9704 119.109 43.9704C119.388 43.9704 119.594 44.0706 119.594 44.291C119.594 44.3711 119.555 44.4713 119.515 44.5715C119.029 45.6868 117.459 48.3515 115.928 49.5068C115.769 49.9543 115.669 50.395 115.669 50.8225C115.669 52.2383 116.654 53.4738 119.135 53.7543C119.521 53.8344 119.9 53.8545 120.286 53.8545C124.172 53.8545 128.264 50.3951 131.604 48.3782L135.569 45.7469C135.789 45.6668 135.928 45.6267 136.015 45.6267C136.101 45.6267 136.135 45.6467 136.135 45.7068C136.135 45.807 136.015 45.9673 135.815 46.1943L133.174 48.1177C130.639 50.0611 123.806 54.7293 119.255 54.7293C116.9 54.7293 115.143 53.4938 114.884 49.981C113.859 51.0095 110.353 54.7494 108.097 54.7494C106.707 54.7494 106.002 53.1532 106.002 51.1697H105.988Z" fill="#1D1D1B"/>
<path d="M129.894 64.8204C129.894 64.2327 130.054 63.5649 130.46 62.877C132.189 59.9051 138.477 52.1181 138.477 48.5652C138.477 48.3048 138.437 48.0376 138.357 47.8172C138.178 47.3497 137.166 46.4615 136.481 45.8137C135.855 46.5016 135.596 46.9023 135.13 46.9023C134.911 46.9023 134.744 46.762 134.744 46.5149C134.744 46.1744 135.084 45.7069 135.39 45.3997C135.609 45.1993 135.796 45.2193 135.975 44.9923C135.796 44.5649 135.716 44.1441 135.716 43.7167C135.716 41.0654 138.597 38.3005 139.887 38.3005C140.433 38.3206 141.078 38.9684 141.398 39.349C141.597 39.5895 141.697 39.8566 141.697 40.1371C141.697 41.7132 138.716 43.7367 137.732 44.8854C137.712 44.9455 137.712 45.0257 137.712 45.0858C137.712 45.8338 138.823 46.4816 139.402 47.0693C140.047 47.7371 140.307 48.3849 140.307 49.1329C140.307 49.7206 140.147 50.3684 139.881 51.1164C138.37 55.4039 135.729 58.516 133.374 62.0155C132.043 63.9789 131.498 65.1276 131.498 65.6752C131.498 65.9357 131.617 66.0826 131.883 66.0826C132.163 66.0826 132.589 65.9023 133.134 65.6151C139.581 62.1557 148.903 51.4837 154.445 45.9606C154.485 45.9206 155.21 45.413 155.47 45.413C155.51 45.413 155.549 45.433 155.549 45.4731C155.549 45.5733 155.47 45.7536 155.23 46.0608C152.01 50.3483 139.581 62.0956 137.326 64.1125C136.015 65.2678 133.6 67.2847 131.95 67.2847C130.865 67.2847 129.894 66.2362 129.894 64.8004V64.8204Z" fill="#1D1D1B"/>
<path d="M197.692 80.0205C197.692 79.4929 197.712 78.8851 197.772 78.2039C198.517 68.34 205.383 47.5101 207.639 40.638C199.988 49.3533 182.443 58.269 181.371 64.8405C181.331 65.0008 181.192 65.101 181.032 65.101C180.167 65.0208 179.781 64.1125 179.781 62.9372C179.781 53.9013 199.781 20.0753 201.431 16.7161C203.002 13.5438 203.687 11.153 203.687 9.45666C203.687 6.84542 202.077 5.79691 199.515 5.79691C194.239 5.79691 185.011 10.2247 177.719 14.5322C168.131 20.2155 156.814 28.1361 156.814 36.5509C156.814 41.2391 160.32 46.0742 169.602 50.7625C170.506 51.2099 170.872 51.7509 170.872 52.2184C170.872 52.786 170.307 53.2268 169.562 53.2268C169.202 53.2268 168.796 53.1266 168.371 52.8862C159.249 47.7104 155.703 42.3744 155.703 37.2387C155.703 28.263 166.501 19.8749 177.053 13.9045C185.031 9.39656 195.363 3.89357 201.504 3.87354C203.72 3.87354 205.27 4.66158 205.796 6.60499C206.262 8.36141 206.501 9.55684 206.501 10.6454C206.501 12.5087 205.796 14.0447 204.246 17.5776C197.699 30.4735 184.971 46.7488 181.91 61.7751C187.346 53.7477 200.786 48.3115 207.652 38.6278C208.278 37.7396 209.023 37.3122 209.608 37.3122C210.194 37.3122 210.613 37.7396 210.613 38.5677C210.613 38.8282 210.573 39.1154 210.493 39.4359C210.453 39.5361 200.22 67.8792 199.535 78.0303C199.495 78.5178 199.495 78.9185 199.495 79.2658C199.495 80.4813 199.675 80.9621 200.021 80.9621C200.526 80.9621 201.391 79.9136 202.536 78.5779C214.459 64.747 245.643 12.2015 258.63 11.173H258.67C258.95 11.173 259.236 11.3934 259.236 11.5604C259.236 11.6405 259.156 11.7006 258.996 11.7206C246.728 12.9762 215.31 65.3614 203.866 79.2257C201.93 81.5698 200.161 83.373 199.009 83.373C198.184 83.373 197.679 82.4247 197.679 80.0138L197.692 80.0205Z" fill="#1D1D1B"/>
<path d="M237.599 57.0535C234.997 57.0535 231.618 55.1702 231.358 52.746C230.633 52.7059 230.313 52.746 230.127 52.2985C230.067 52.1783 230.047 52.0982 230.047 52.0381C230.047 51.978 230.087 51.9579 230.167 51.9579C230.267 51.9579 230.447 52.018 230.673 52.018C230.813 52.018 230.972 51.978 231.158 51.9179C231.498 51.7776 231.584 51.5973 231.704 51.25C232.769 48.4184 238.49 43.1625 241.391 42.9822H241.571C242.456 42.9822 243.707 43.3896 243.986 43.9505C244.046 44.0708 244.086 44.211 244.086 44.3579C244.086 46.8423 235.004 51.8377 234.113 51.8577C233.873 52.3853 233.773 52.8662 233.773 53.2936C233.773 55.0901 235.689 55.9048 237.439 55.9449H237.739C244.186 55.9449 254.113 49.6806 259.049 46.0008C259.389 45.7604 259.635 45.5934 259.735 45.5934C259.775 45.5934 259.815 45.6135 259.815 45.6535C259.815 45.7737 259.695 46.0142 259.429 46.4416C248.491 54.5091 241.664 56.8532 237.878 57.0535H237.599ZM243.54 44.2778C243.54 44.2177 243.52 44.1776 243.481 44.1375C243.401 44.0774 243.281 44.0374 243.141 44.0374C241.371 44.0574 235.47 49.4936 234.658 50.9295C238.145 49.6138 243.54 45.2862 243.54 44.2778Z" fill="#1D1D1B"/>
<path d="M291.092 91.5272C287.286 89.4235 286.015 84.0474 286.015 78.1236C286.015 70.9243 287.892 62.937 289.316 59.0569C290.706 55.337 292.376 51.7373 294.312 48.2178C291.591 50.6621 287.626 53.4737 286.9 54.0614C286.514 54.3419 285.29 55.2769 284.765 55.4973C284.485 55.6175 284.279 55.6776 284.099 55.6776C283.82 55.6776 283.654 55.5173 283.434 55.2301C282.848 54.8428 282.589 54.1816 282.589 53.3268C282.589 51.5303 283.74 48.9792 285.35 46.8755C280.899 49.9676 275.117 52.1514 271.391 52.1514C269.136 52.1514 267.626 51.3433 267.626 49.44C267.626 49.0326 267.705 48.5718 267.845 48.0442C265.104 50.1679 261.079 52.5721 260.353 53.0597C259.967 53.3001 258.743 54.0881 258.218 54.2551C257.978 54.3152 257.792 54.3553 257.652 54.3553C257.313 54.3553 257.146 54.175 256.887 53.8277C256.301 53.3802 256.042 52.6723 256.042 51.8242C256.042 48.3648 260.154 42.7482 263.773 42.5612C264.818 42.5612 266.574 42.9486 267.499 43.189C268.81 43.5296 268.989 43.6765 269.655 44.3444C270.62 42.7683 271.631 41.2122 272.695 39.6562C278.377 31.3482 289.775 13.8776 298.537 8.32118C300.307 7.18585 301.964 6.68497 303.308 6.68497C305.483 6.68497 306.934 8.00062 306.934 10.2045C306.934 11.3398 306.528 12.7289 305.663 14.2917C300.081 24.2825 279.562 39.4625 271.764 45.9939C270.573 47.8973 270.054 49.2263 270.054 50.1212C270.054 51.2098 270.799 51.6372 271.99 51.6372C275.816 51.6372 284.199 47.1493 287.399 44.6649C287.539 44.5447 287.679 44.4445 287.805 44.3243C287.845 44.3243 287.865 44.3043 287.905 44.2642C288.85 43.5563 289.635 43.1089 291.125 43.1089C292.11 43.1089 293.341 43.2491 294.046 43.3493C295.517 43.5697 295.556 43.6699 296.481 44.4846C297.466 42.8685 298.497 41.2723 299.582 39.6695C305.244 31.3616 323.534 7.21925 332.29 1.6428C334.04 0.527506 335.676 0.0266269 337.04 0.0065918C339.236 0.0065918 340.686 1.32223 340.686 3.54613C340.686 4.68146 340.28 6.07056 339.416 7.63331C333.853 17.6242 306.461 39.4758 298.65 46.0073C295.63 50.7957 292.749 55.9314 290.573 61.1739C288.863 65.3813 287.167 72.033 287.167 78.2171C287.167 83.3127 288.318 88.1011 291.538 90.9127C291.817 91.053 291.984 91.3201 291.984 91.5004C291.984 91.6407 291.904 91.7609 291.704 91.7609C291.564 91.7609 291.365 91.7008 291.079 91.5405L291.092 91.5272ZM262.995 49.8006C264.206 48.9525 267.446 46.5282 268.757 45.9205C268.916 45.64 269.016 45.4129 269.242 45.0924C268.577 44.8519 267.572 44.7317 266.707 44.7317C266.002 44.7518 265.397 44.8119 265.057 44.9521C262.702 45.8604 259.495 50.2881 258.976 52.2917C259.602 52.1514 262.216 50.3482 263.001 49.8073L262.995 49.8006ZM304.106 14.2382C304.831 12.9426 305.497 11.0259 305.497 9.67021C305.497 8.76195 305.197 8.09411 304.385 8.09411C303.8 8.09411 302.995 8.41468 301.87 9.18269C298.244 11.647 293.088 17.3303 292.642 17.8579C286.641 24.8502 287.486 24.9771 281.584 32.1096C278.883 35.5489 275.942 39.5693 273.101 43.917C280.513 37.6927 299.202 22.9735 304.099 14.2382H304.106ZM289.542 50.4684C290.813 49.44 294.339 46.3813 295.483 45.8203C295.949 45.5999 295.723 45.7402 296.009 45.2526L295.989 45.0924C295.603 44.9521 295.044 44.912 294.459 44.912C293.348 44.912 292.123 45.0924 291.598 45.3795C289.242 46.575 286.035 51.3634 285.516 53.447C286.142 53.2266 288.757 51.1229 289.542 50.4751V50.4684ZM337.865 7.55984C338.59 6.26424 339.256 4.34754 339.256 2.99183C339.256 2.06353 338.936 1.41573 338.125 1.41573C337.539 1.41573 336.774 1.69622 335.63 2.48427C332.004 4.9486 326.847 10.6319 326.401 11.1595C320.4 18.1718 314.379 24.9704 308.497 32.1029C305.776 35.5423 302.855 39.5627 299.994 43.9103C307.386 37.686 332.988 16.2751 337.859 7.55984H337.865Z" fill="#1D1D1B"/>
<path d="M307.147 51.9378C306.807 51.27 306.421 50.9695 306.421 49.9744C306.421 48.6988 307.366 47.2429 307.992 46.3948C308.377 45.8672 309.502 44.5983 310.267 44.0907C310.347 44.0507 310.507 44.0106 310.713 44.0106C311.218 44.0106 311.924 44.2109 311.924 44.7185C311.924 44.9389 311.804 45.206 311.498 45.5466C310.287 46.9023 307.912 49.6538 307.912 51.8377V51.9378C308.437 52.2985 309.163 52.4454 309.968 52.4454C313.168 52.4454 317.965 50.1413 319.356 49.4535C321.212 48.5252 323.667 47.2296 325.437 46.2412L326.947 45.4732C327.087 45.4331 327.246 45.373 327.333 45.373C327.373 45.373 327.393 45.393 327.393 45.413C327.393 45.4531 327.333 45.5333 327.173 45.6935C326.109 46.6819 321.658 48.9259 320.846 49.3533C319.495 50.1013 313.494 53.2134 309.808 53.2134C308.577 53.2134 307.592 52.8528 307.147 51.9378ZM312.463 39.0419V38.9818C312.463 38.354 313.574 37.7863 314.153 37.5259C314.578 37.7062 314.738 37.9132 314.738 38.1536C314.738 38.334 314.618 38.561 314.479 38.8215C314.119 39.4092 313.694 39.6095 313.328 39.6095C312.842 39.6095 312.483 39.289 312.463 39.0419Z" fill="#1D1D1B"/>
<path d="M334.053 53.2936C333.328 52.4054 332.563 51.998 332.563 50.1414V49.8008C332.662 48.1446 334.133 45.2929 334.499 43.7969C330.407 45.8405 326.788 48.5052 324.206 52.3319C323.986 52.7994 323.867 53.7277 323.501 53.7277C323.441 53.7277 323.381 53.7077 323.301 53.6676C322.962 53.4272 322.656 52.9597 322.656 52.5323C322.656 50.6089 325.337 45.8005 327.227 43.8771C327.632 43.4697 328.012 43.3295 328.338 43.3295C329.123 43.3295 329.688 44.1175 329.688 44.3579L329.668 44.398C329.123 45.2862 327.593 47.2096 327.353 47.8574C327.553 47.6571 327.799 47.5368 328.038 47.3098C328.724 46.702 332.629 43.8704 334.239 43.2493C334.339 43.2092 334.459 43.1892 334.559 43.1892C335.404 43.1892 336.415 44.2778 336.415 45.4331C336.415 45.6135 336.395 45.7737 336.355 45.9407C335.889 47.637 334.339 50.1681 334.339 51.8244C334.339 52.4922 334.599 53.0198 335.244 53.2802C335.809 53.5006 336.455 53.6008 337.16 53.6008C341.931 53.6008 349.369 48.7456 352.809 46.1811C352.869 46.1411 354.199 45.373 354.459 45.373C354.499 45.373 354.519 45.3931 354.519 45.4131C354.519 45.4331 354.459 45.5133 354.359 45.6135C351.558 48.385 341.951 54.3488 336.774 54.3488C335.583 54.3488 334.638 54.0483 334.053 53.3003V53.2936Z" fill="#1D1D1B"/>
<path d="M319.436 90.0113C319.436 88.0278 320.34 85.5835 322.416 82.8922C328.903 74.4841 344.492 63.9656 357.506 56.2254C358.511 54.4089 359.482 52.6257 360.467 50.9294C361.897 48.405 363.747 45.5734 365.038 43.0623C363.667 44.2377 362.157 45.954 360.567 47.7705C360.487 48.6788 360.081 49.8742 359.662 51.4103C359.542 51.8176 359.402 51.9579 359.276 51.9579C359.176 51.9579 359.076 51.8377 359.076 51.6774L359.096 51.5772C359.336 50.5087 359.502 49.6338 359.582 48.9059C356.522 52.4053 353.155 55.8781 350.68 55.8781C350.4 55.8781 350.154 55.818 350.014 55.6778C349.13 54.8096 348.764 53.8412 348.764 52.8261C348.764 50.6422 350.414 48.2981 352.11 46.535C354.166 44.4514 356.036 43.6633 357.426 43.6633C358.817 43.6633 359.582 44.4714 360.108 45.0792C360.494 45.4665 360.573 46.0075 360.613 46.535C362.164 44.9189 363.494 43.483 364.18 42.735L366.255 40.411C366.555 40.0704 366.841 39.9435 367.08 39.9435C367.28 39.9435 367.486 40.0236 367.666 40.1038C367.925 40.224 368.192 40.3843 368.192 40.7115C368.192 40.8517 368.132 41.012 368.032 41.2391L364.007 48.6988C363.062 50.4553 362.05 52.2985 361.006 54.1751C373.474 46.9959 401.532 33.2117 419.017 33.2117C427.879 33.2317 434.02 36.7712 434.02 46.5551C434.02 47.7705 433.92 49.0795 433.721 50.5154C433.721 50.5354 433.155 50.9227 432.51 50.9227C432.15 50.9227 431.765 50.8025 431.445 50.3751C432.051 48.0711 432.35 46.0676 432.35 44.3111C432.35 36.9516 427.254 34.2201 419.722 34.2201C401.738 34.2201 369.788 49.8876 360.301 55.4507C352.869 68.8542 343.441 84.3414 332.603 92.0415C329.722 94.1052 327.02 94.9934 324.825 94.9934C321.585 94.9934 319.449 93.05 319.449 89.998L319.436 90.0113ZM330.713 91.5874C341.751 84.1878 350.314 69.3684 356.774 57.5611C349.622 61.8886 341.625 66.7772 335.144 71.8328C330.148 75.7129 326.142 79.78 323.481 83.2528C321.385 86.0243 320.48 88.4085 320.48 90.205C320.48 92.5491 321.97 93.9249 324.366 93.9249C326.096 93.9249 328.291 93.1969 330.713 91.5807V91.5874ZM359.695 47.47L359.715 46.9024C359.715 46.3547 359.635 45.8138 359.17 45.8138C359.09 45.8138 358.99 45.8338 358.89 45.8739C356.475 46.702 353.374 51.1298 351.984 53.7611C351.764 54.1684 351.665 54.4289 351.665 54.5691C351.665 54.6693 351.704 54.7094 351.784 54.7094C352.51 54.7094 356.395 50.8894 359.702 47.47H359.695Z" fill="#1D1D1B"/>
</g>
<defs>
<clipPath id="clip0_387_442">
<rect width="434" height="95" fill="white"/>
</clipPath>
</defs>
</svg>
